<?xml version="1.0" encoding="UTF-8" standalone="no"?>
<svg
   xmlns:dc="http://purl.org/dc/elements/1.1/"
   xmlns:cc="http://creativecommons.org/ns#"
   xmlns:rdf="http://www.w3.org/1999/02/22-rdf-syntax-ns#"
   xmlns:svg="http://www.w3.org/2000/svg"
   xmlns="http://www.w3.org/2000/svg"
   xmlns:sodipodi="http://sodipodi.sourceforge.net/DTD/sodipodi-0.dtd"
   xmlns:inkscape="http://www.inkscape.org/namespaces/inkscape"
   width="189.87457mm"
   height="118.55602mm"
   viewBox="0 0 189.87457 118.55603"
   version="1.1"
   id="svg8"
   inkscape:version="1.0.2-2 (e86c870879, 2021-01-15)"
   sodipodi:docname="efhk.svg">
  <defs
     id="defs2" />
  <sodipodi:namedview
     id="base"
     pagecolor="#ffffff"
     bordercolor="#666666"
     borderopacity="1.0"
     inkscape:pageopacity="0.0"
     inkscape:pageshadow="2"
     inkscape:zoom="2.066903"
     inkscape:cx="391.84108"
     inkscape:cy="109.1408"
     inkscape:document-units="mm"
     inkscape:current-layer="layer1"
     inkscape:document-rotation="0"
     showgrid="false"
     inkscape:window-width="1347"
     inkscape:window-height="1368"
     inkscape:window-x="1204"
     inkscape:window-y="0"
     inkscape:window-maximized="0"
     fit-margin-top="0"
     fit-margin-left="0"
     fit-margin-right="0"
     fit-margin-bottom="0" />
  <metadata
     id="metadata5">
    <rdf:RDF>
      <cc:Work
         rdf:about="">
        <dc:format>image/svg+xml</dc:format>
        <dc:type
           rdf:resource="http://purl.org/dc/dcmitype/StillImage" />
        <dc:title></dc:title>
      </cc:Work>
    </rdf:RDF>
  </metadata>
  <g
     inkscape:label="Taso 1"
     inkscape:groupmode="layer"
     id="layer1"
     transform="translate(-12.422674,-9.5910575)">
    <rect
       style="fill:#4d4d4d;stroke-width:0.264583"
       id="rect62"
       width="5"
       height="110"
       x="86.462944"
       y="-66.840431"
       transform="rotate(47.3)" />
    <rect
       style="fill:#4d4d4d;stroke-width:0.264583"
       id="rect62-4"
       width="5"
       height="126"
       x="134.32982"
       y="-113.95174"
       transform="rotate(47.3)" />
    <rect
       style="fill:#4d4d4d;stroke-width:0.264583"
       id="rect62-4-8"
       width="5"
       height="104"
       x="-122.26321"
       y="-191.85074"
       transform="rotate(153.3)" />
    <g
       aria-label="22R"
       id="text122"
       style="font-style:normal;font-weight:normal;font-size:10.5833px;line-height:1.25;font-family:sans-serif;fill:#000000;fill-opacity:1;stroke:none;stroke-width:0.264583">
      <path
         d="m 108.5644,11.570134 q 0.15345,-0.41804 0.44979,-0.767289 0.29633,-0.349249 0.72495,-0.560915 0.43392,-0.216958 0.97367,-0.216958 0.63499,0 1.09537,0.248708 0.46037,0.248707 0.71437,0.693206 0.254,0.444499 0.254,1.02658 0,0.507999 -0.1905,0.883706 -0.18521,0.375707 -0.48683,0.677331 -0.29633,0.301624 -0.64558,0.592665 l -0.80963,0.666748 q -0.30162,0.25929 -0.53974,0.497415 -0.23813,0.232832 -0.37571,0.433915 -0.13758,0.195791 -0.14288,0.333374 l -0.0212,0.788456 h -0.64029 q -0.16404,-0.174625 -0.30163,-0.349249 -0.13758,-0.179916 -0.13758,-0.402166 0,-0.301624 0.18521,-0.629706 0.1905,-0.328082 0.49212,-0.650873 0.30163,-0.328082 0.64558,-0.624415 l 1.03717,-0.878413 q 0.37041,-0.312208 0.58208,-0.619123 0.21696,-0.312208 0.21696,-0.730248 0,-0.48154 -0.29104,-0.767289 -0.28575,-0.285749 -0.73554,-0.285749 -0.43921,0 -0.76729,0.296332 -0.32279,0.296332 -0.49742,0.714373 -0.20108,-0.01058 -0.43921,-0.100542 -0.23812,-0.09525 -0.34924,-0.269874 z m 4.37619,4.333861 q 0,0.560915 -0.16933,0.761998 -0.16404,0.201083 -0.56092,0.201083 h -3.21203 l -0.3175,-0.719665 q 0.31221,-0.08996 0.75142,-0.142874 0.4392,-0.05821 0.86254,-0.07937 0.42862,-0.02117 0.70908,-0.02117 z"
         style="font-style:normal;font-variant:normal;font-weight:normal;font-stretch:normal;font-family:Signika;-inkscape-font-specification:Signika;stroke-width:0.264583"
         id="path30" />
      <path
         d="m 114.27937,11.570134 q 0.15346,-0.41804 0.44979,-0.767289 0.29633,-0.349249 0.72495,-0.560915 0.43392,-0.216958 0.97367,-0.216958 0.635,0 1.09537,0.248708 0.46037,0.248707 0.71437,0.693206 0.254,0.444499 0.254,1.02658 0,0.507999 -0.1905,0.883706 -0.18521,0.375707 -0.48683,0.677331 -0.29633,0.301624 -0.64558,0.592665 l -0.80962,0.666748 q -0.30163,0.25929 -0.53975,0.497415 -0.23813,0.232832 -0.37571,0.433915 -0.13758,0.195791 -0.14287,0.333374 l -0.0212,0.788456 h -0.64029 q -0.16404,-0.174625 -0.30162,-0.349249 -0.13759,-0.179916 -0.13759,-0.402166 0,-0.301624 0.18521,-0.629706 0.1905,-0.328082 0.49212,-0.650873 0.30163,-0.328082 0.64559,-0.624415 l 1.03716,-0.878413 q 0.37041,-0.312208 0.58208,-0.619123 0.21696,-0.312208 0.21696,-0.730248 0,-0.48154 -0.29104,-0.767289 -0.28575,-0.285749 -0.73554,-0.285749 -0.43921,0 -0.76729,0.296332 -0.32279,0.296332 -0.49742,0.714373 -0.20108,-0.01058 -0.4392,-0.100542 -0.23813,-0.09525 -0.34925,-0.269874 z m 4.37619,4.333861 q 0,0.560915 -0.16933,0.761998 -0.16404,0.201083 -0.56092,0.201083 h -3.21203 l -0.3175,-0.719665 q 0.31221,-0.08996 0.75142,-0.142874 0.4392,-0.05821 0.86254,-0.07937 0.42862,-0.02117 0.70908,-0.02117 z"
         style="font-style:normal;font-variant:normal;font-weight:normal;font-stretch:normal;font-family:Signika;-inkscape-font-specification:Signika;stroke-width:0.264583"
         id="path32" />
      <path
         d="m 125.00553,11.760634 q 0,0.486831 -0.17991,0.878413 -0.17992,0.391583 -0.48684,0.661457 -0.30691,0.264582 -0.68791,0.38629 0.25929,0.08996 0.4445,0.338666 0.1905,0.248707 0.30162,0.560915 l 0.47096,1.238246 q 0.11641,0.312207 0.22225,0.48154 0.10583,0.169333 0.24871,0.280457 -0.11113,0.164041 -0.33338,0.259291 -0.21696,0.08996 -0.42862,0.08996 -0.3175,0 -0.46567,-0.174624 -0.14816,-0.174625 -0.27516,-0.518582 l -0.52917,-1.428745 q -0.13229,-0.365124 -0.35454,-0.60854 -0.22225,-0.248708 -0.71437,-0.248708 h -1.32291 v -0.883705 q 0.23283,-0.01058 0.53445,-0.01587 0.30163,-0.01058 0.59267,-0.01587 0.29633,-0.0053 0.5027,-0.0053 0.51859,0 0.79904,-0.190499 0.28046,-0.1905 0.38629,-0.48154 0.10584,-0.296333 0.10584,-0.603248 0,-0.322791 -0.10584,-0.613832 -0.10583,-0.291041 -0.38629,-0.476248 -0.28045,-0.1905 -0.79904,-0.1905 -0.15345,0 -0.35983,0 -0.20108,0 -0.41804,0 -0.21166,-0.0053 -0.39158,-0.01058 v 6.392313 q -0.13229,0.02117 -0.28575,0.03175 -0.14817,0.01058 -0.28046,0.01058 -0.127,0 -0.28045,-0.01058 -0.14817,-0.01058 -0.27517,-0.03175 V 9.6915985 l 0.0688,-0.0635 q 0.59796,-0.015875 1.16946,-0.026458 0.57149,-0.010583 1.11124,-0.010583 0.73554,0 1.27529,0.2487076 0.53975,0.2487069 0.83079,0.7355389 0.29633,0.48154 0.29633,1.18533 z"
         style="font-style:normal;font-variant:normal;font-weight:normal;font-stretch:normal;font-family:Signika;-inkscape-font-specification:Signika;stroke-width:0.264583"
         id="path34" />
    </g>
    <g
       aria-label="22L"
       id="text122-5"
       style="font-style:normal;font-weight:normal;font-size:10.5833px;line-height:1.25;font-family:sans-serif;fill:#000000;fill-opacity:1;stroke:none;stroke-width:0.264583">
      <path
         d="m 177.27182,15.789029 q 0.15345,-0.41804 0.44979,-0.767289 0.29633,-0.349249 0.72495,-0.560915 0.43392,-0.216958 0.97367,-0.216958 0.63499,0 1.09537,0.248708 0.46037,0.248707 0.71437,0.693206 0.254,0.444499 0.254,1.02658 0,0.507998 -0.1905,0.883706 -0.18521,0.375707 -0.48683,0.677331 -0.29633,0.301624 -0.64558,0.592665 l -0.80963,0.666747 q -0.30162,0.259291 -0.53974,0.497416 -0.23813,0.232832 -0.37571,0.433915 -0.13758,0.195791 -0.14288,0.333374 l -0.0212,0.788456 h -0.64029 q -0.16404,-0.174625 -0.30163,-0.349249 -0.13758,-0.179916 -0.13758,-0.402166 0,-0.301624 0.18521,-0.629706 0.1905,-0.328082 0.49212,-0.650873 0.30163,-0.328082 0.64558,-0.624415 l 1.03717,-0.878413 q 0.37041,-0.312208 0.58208,-0.619124 0.21696,-0.312207 0.21696,-0.730247 0,-0.48154 -0.29104,-0.767289 -0.28575,-0.28575 -0.73554,-0.28575 -0.43921,0 -0.76729,0.296333 -0.32279,0.296332 -0.49742,0.714373 -0.20108,-0.01058 -0.4392,-0.100542 -0.23813,-0.09525 -0.34925,-0.269874 z m 4.37619,4.333861 q 0,0.560915 -0.16933,0.761998 -0.16404,0.201083 -0.56092,0.201083 h -3.21203 l -0.3175,-0.719665 q 0.31221,-0.08996 0.75142,-0.142874 0.4392,-0.05821 0.86254,-0.07937 0.42862,-0.02117 0.70908,-0.02117 z"
         style="font-style:normal;font-variant:normal;font-weight:normal;font-stretch:normal;font-family:Signika;-inkscape-font-specification:Signika;stroke-width:0.264583"
         id="path42" />
      <path
         d="m 182.98679,15.789029 q 0.15346,-0.41804 0.44979,-0.767289 0.29633,-0.349249 0.72495,-0.560915 0.43392,-0.216958 0.97367,-0.216958 0.635,0 1.09537,0.248708 0.46037,0.248707 0.71437,0.693206 0.254,0.444499 0.254,1.02658 0,0.507998 -0.1905,0.883706 -0.18521,0.375707 -0.48683,0.677331 -0.29633,0.301624 -0.64558,0.592665 l -0.80962,0.666747 q -0.30163,0.259291 -0.53975,0.497416 -0.23813,0.232832 -0.37571,0.433915 -0.13758,0.195791 -0.14287,0.333374 l -0.0212,0.788456 h -0.64029 q -0.16404,-0.174625 -0.30162,-0.349249 -0.13759,-0.179916 -0.13759,-0.402166 0,-0.301624 0.18521,-0.629706 0.1905,-0.328082 0.49212,-0.650873 0.30163,-0.328082 0.64559,-0.624415 l 1.03716,-0.878413 q 0.37041,-0.312208 0.58208,-0.619124 0.21696,-0.312207 0.21696,-0.730247 0,-0.48154 -0.29104,-0.767289 -0.28575,-0.28575 -0.73554,-0.28575 -0.43921,0 -0.76729,0.296333 -0.32279,0.296332 -0.49742,0.714373 -0.20108,-0.01058 -0.4392,-0.100542 -0.23813,-0.09525 -0.34925,-0.269874 z m 4.37619,4.333861 q 0,0.560915 -0.16933,0.761998 -0.16404,0.201083 -0.56092,0.201083 h -3.21203 l -0.3175,-0.719665 q 0.31221,-0.08996 0.75142,-0.142874 0.43921,-0.05821 0.86254,-0.07937 0.42862,-0.02117 0.70908,-0.02117 z"
         style="font-style:normal;font-variant:normal;font-weight:normal;font-stretch:normal;font-family:Signika;-inkscape-font-specification:Signika;stroke-width:0.264583"
         id="path44" />
      <path
         d="m 190.08817,21.091262 h -0.47625 q -0.28575,0 -0.47095,-0.179916 -0.18521,-0.179916 -0.18521,-0.523873 v -6.514021 l 0.0688,-0.0635 h 0.43392 q 0.34395,0 0.48683,0.174625 0.14287,0.174624 0.14287,0.539748 z m 3.0427,-0.984247 q 0,0.571499 -0.17462,0.777873 -0.17463,0.206374 -0.58209,0.206374 h -2.76224 l -0.58208,-0.825497 q 0.49213,-0.08467 1.02658,-0.121708 0.53446,-0.03704 0.97367,-0.03704 z"
         style="font-style:normal;font-variant:normal;font-weight:normal;font-stretch:normal;font-family:Signika;-inkscape-font-specification:Signika;stroke-width:0.264583"
         id="path46" />
    </g>
    <g
       aria-label="04R"
       id="text150"
       style="font-style:normal;font-weight:normal;font-size:10.5833px;line-height:1.25;font-family:sans-serif;fill:#000000;fill-opacity:1;stroke:none;stroke-width:0.264583">
      <path
         d="m 66.848693,115.7432 q 0,-0.96837 0.142875,-1.67745 0.142874,-0.70908 0.629706,-1.21179 0.275166,-0.26987 0.634998,-0.43391 0.365124,-0.16404 0.915455,-0.16404 0.550332,0 0.904872,0.16404 0.354541,0.16404 0.634998,0.43391 0.476249,0.50271 0.624415,1.21179 0.148166,0.70908 0.148166,1.67745 0,0.96838 -0.148166,1.67746 -0.148166,0.70908 -0.624415,1.21179 -0.280457,0.26987 -0.640289,0.43391 -0.354541,0.16404 -0.904872,0.16404 -0.54504,0 -0.904873,-0.16404 -0.359832,-0.16404 -0.640289,-0.43391 -0.476249,-0.50271 -0.624415,-1.21179 -0.148166,-0.70908 -0.148166,-1.67746 z m 1.148288,0 q 0,0.889 0.08996,1.42875 0.09525,0.53975 0.317499,0.8255 0.127,0.18521 0.317499,0.28046 0.195791,0.0899 0.444499,0.0899 0.248707,0 0.444498,-0.0899 0.195791,-0.0953 0.317499,-0.28046 0.222249,-0.28575 0.312208,-0.8255 0.09525,-0.53975 0.09525,-1.42875 0,-0.89428 -0.09525,-1.42874 -0.08996,-0.53975 -0.312208,-0.8255 -0.126999,-0.18521 -0.32279,-0.27516 -0.1905,-0.0953 -0.439207,-0.0953 -0.248708,0 -0.444499,0.0953 -0.190499,0.0899 -0.317499,0.27516 -0.222249,0.28575 -0.317499,0.8255 -0.08996,0.53446 -0.08996,1.42874 z"
         style="font-style:normal;font-variant:normal;font-weight:normal;font-stretch:normal;font-family:Signika;-inkscape-font-specification:Signika;stroke-width:0.264583"
         id="path54" />
      <path
         d="m 72.732997,117.63762 q -0.111124,-0.16405 -0.179916,-0.33338 -0.06879,-0.17462 -0.06879,-0.33337 0,-0.12171 0.05821,-0.29104 0.0635,-0.16934 0.153458,-0.36513 l 1.804452,-3.98461 q 0.15875,-0.037 0.359833,-0.0159 0.201082,0.0159 0.380998,0.0741 0.185208,0.0529 0.280458,0.14287 l -1.222371,2.67758 q -0.09525,0.21696 -0.227541,0.5027 -0.127,0.28046 -0.269874,0.55563 -0.137583,0.26987 -0.248708,0.45508 l 0.02117,0.037 q 0.206374,-0.0159 0.444498,-0.0265 0.238124,-0.0106 0.444499,-0.0106 0.211666,-0.005 0.32279,-0.005 h 1.471079 q 0.127,0 0.238124,-0.005 0.116417,-0.005 0.248708,-0.005 h 0.560915 q 0.02117,0.11112 0.02646,0.21695 0.0053,0.10584 0.0053,0.20109 0,0.10583 -0.01587,0.24341 -0.01588,0.13758 -0.05821,0.26458 h -0.518582 q -0.132291,0 -0.248708,0 -0.111124,-0.005 -0.238124,-0.005 h -1.047747 q -0.126999,0 -0.285749,0.005 -0.153457,0.005 -0.280457,0.005 z m 2.465909,0.55562 q 0,-0.13229 0.0053,-0.28046 0.0053,-0.15346 0.0053,-0.28575 v -0.80962 q 0,-0.0688 -0.0053,-0.21696 -0.0053,-0.15346 -0.0053,-0.22754 v -0.83079 q 0,-0.39687 0.195791,-0.61383 0.195791,-0.22225 0.529165,-0.22225 h 0.296333 l 0.04762,0.0476 v 1.39699 q 0,0.13229 -0.0053,0.28575 -0.0053,0.15346 -0.0053,0.28046 v 0.91016 q 0,0.13229 0.0053,0.28575 0.0053,0.14817 0.0053,0.28046 v 0.89958 q -0.137582,0.0212 -0.269874,0.0318 -0.132291,0.0106 -0.269874,0.0106 -0.132291,0 -0.269874,-0.0106 -0.132291,-0.0106 -0.259291,-0.0318 z"
         style="font-style:normal;font-variant:normal;font-weight:normal;font-stretch:normal;font-family:Signika;-inkscape-font-specification:Signika;stroke-width:0.264583"
         id="path56" />
      <path
         d="m 83.448578,113.99167 q 0,0.48683 -0.179916,0.87841 -0.179916,0.39158 -0.486832,0.66146 -0.306916,0.26458 -0.687914,0.38629 0.25929,0.09 0.444498,0.33866 0.1905,0.24871 0.301624,0.56092 l 0.470957,1.23825 q 0.116416,0.3122 0.222249,0.48154 0.105833,0.16933 0.248708,0.28045 -0.111125,0.16404 -0.333374,0.25929 -0.216958,0.09 -0.428624,0.09 -0.317499,0 -0.465665,-0.17462 -0.148166,-0.17463 -0.275166,-0.51858 l -0.529165,-1.42875 q -0.132291,-0.36512 -0.35454,-0.60854 -0.222249,-0.24871 -0.714373,-0.24871 h -1.322912 v -0.8837 q 0.232832,-0.0106 0.534456,-0.0159 0.301624,-0.0106 0.592665,-0.0159 0.296332,-0.005 0.502707,-0.005 0.518581,0 0.799039,-0.1905 0.280457,-0.1905 0.38629,-0.48154 0.105833,-0.29634 0.105833,-0.60325 0,-0.32279 -0.105833,-0.61383 -0.105833,-0.29104 -0.38629,-0.47625 -0.280458,-0.1905 -0.799039,-0.1905 -0.153458,0 -0.359832,0 -0.201083,0 -0.418041,0 -0.211666,-0.005 -0.391582,-0.0106 v 6.39231 q -0.132291,0.0212 -0.285749,0.0318 -0.148166,0.0106 -0.280457,0.0106 -0.127,0 -0.280458,-0.0106 -0.148166,-0.0106 -0.275166,-0.0318 v -7.17019 l 0.06879,-0.0635 q 0.597956,-0.0159 1.169454,-0.0264 0.571499,-0.0106 1.111247,-0.0106 0.735539,0 1.275288,0.24871 0.539748,0.24871 0.830789,0.73554 0.296332,0.48154 0.296332,1.18533 z"
         style="font-style:normal;font-variant:normal;font-weight:normal;font-stretch:normal;font-family:Signika;-inkscape-font-specification:Signika;stroke-width:0.264583"
         id="path58" />
    </g>
    <g
       aria-label="04L"
       id="text154"
       style="font-style:normal;font-weight:normal;font-size:10.5833px;line-height:1.25;font-family:sans-serif;fill:#000000;fill-opacity:1;stroke:none;stroke-width:0.264583">
      <path
         d="m 12.422674,100.96909 q 0,-0.96837 0.142875,-1.677455 0.142874,-0.709081 0.629706,-1.211787 0.275166,-0.269875 0.634998,-0.433916 0.365124,-0.164041 0.915456,-0.164041 0.550331,0 0.904872,0.164041 0.35454,0.164041 0.634998,0.433916 0.476248,0.502706 0.624414,1.211787 0.148167,0.709085 0.148167,1.677455 0,0.96837 -0.148167,1.67745 -0.148166,0.70908 -0.624414,1.21179 -0.280458,0.26987 -0.64029,0.43391 -0.354541,0.16405 -0.904872,0.16405 -0.54504,0 -0.904872,-0.16405 -0.359832,-0.16404 -0.64029,-0.43391 -0.476248,-0.50271 -0.624415,-1.21179 -0.148166,-0.70908 -0.148166,-1.67745 z m 1.148288,0 q 0,0.889 0.08996,1.42874 0.09525,0.53975 0.317499,0.8255 0.127,0.18521 0.317499,0.28046 0.195791,0.09 0.444499,0.09 0.248707,0 0.444498,-0.09 0.195792,-0.0952 0.317499,-0.28046 0.22225,-0.28575 0.312208,-0.8255 0.09525,-0.53974 0.09525,-1.42874 0,-0.89429 -0.09525,-1.428747 -0.08996,-0.539748 -0.312208,-0.825497 -0.126999,-0.185208 -0.32279,-0.275166 -0.1905,-0.09525 -0.439207,-0.09525 -0.248708,0 -0.444499,0.09525 -0.190499,0.08996 -0.317499,0.275166 -0.222249,0.285749 -0.317499,0.825497 -0.08996,0.534457 -0.08996,1.428747 z"
         style="font-style:normal;font-variant:normal;font-weight:normal;font-stretch:normal;font-family:Signika;-inkscape-font-specification:Signika;stroke-width:0.264583"
         id="path61" />
      <path
         d="m 18.306979,102.8635 q -0.111125,-0.16404 -0.179916,-0.33337 -0.06879,-0.17463 -0.06879,-0.33338 0,-0.12171 0.05821,-0.29104 0.0635,-0.16933 0.153458,-0.36512 l 1.804453,-3.984616 q 0.158749,-0.03704 0.359832,-0.01588 0.201083,0.01588 0.380999,0.07408 0.185207,0.05292 0.280457,0.142875 l -1.222371,2.677571 q -0.09525,0.21696 -0.227541,0.50271 -0.127,0.28046 -0.269874,0.55562 -0.137583,0.26988 -0.248708,0.45508 l 0.02117,0.037 q 0.206374,-0.0159 0.444499,-0.0265 0.238124,-0.0106 0.444498,-0.0106 0.211666,-0.005 0.322791,-0.005 h 1.471078 q 0.127,0 0.238125,-0.005 0.116416,-0.005 0.248707,-0.005 h 0.560915 q 0.02117,0.11112 0.02646,0.21696 0.0053,0.10583 0.0053,0.20108 0,0.10583 -0.01587,0.24341 -0.01588,0.13759 -0.05821,0.26459 h -0.518582 q -0.132291,0 -0.248707,0 -0.111125,-0.005 -0.238125,-0.005 h -1.047746 q -0.127,0 -0.285749,0.005 -0.153458,0.005 -0.280458,0.005 z m 2.465908,0.55562 q 0,-0.13229 0.0053,-0.28046 0.0053,-0.15345 0.0053,-0.28574 v -0.80963 q 0,-0.0688 -0.0053,-0.21695 -0.0053,-0.15346 -0.0053,-0.22755 v -0.83078 q 0,-0.39688 0.195791,-0.61384 0.195792,-0.222245 0.529165,-0.222245 h 0.296333 l 0.04763,0.04762 v 1.397005 q 0,0.13229 -0.0053,0.28574 -0.0053,0.15346 -0.0053,0.28046 v 0.91017 q 0,0.13229 0.0053,0.28574 0.0053,0.14817 0.0053,0.28046 v 0.89958 q -0.137583,0.0212 -0.269874,0.0317 -0.132292,0.0106 -0.269875,0.0106 -0.132291,0 -0.269874,-0.0106 -0.132291,-0.0106 -0.259291,-0.0317 z"
         style="font-style:normal;font-variant:normal;font-weight:normal;font-stretch:normal;font-family:Signika;-inkscape-font-specification:Signika;stroke-width:0.264583"
         id="path63" />
      <path
         d="m 25.397779,104.32929 h -0.476248 q -0.285749,0 -0.470957,-0.17992 -0.185208,-0.17992 -0.185208,-0.52387 v -6.514024 l 0.06879,-0.0635 h 0.433916 q 0.343957,0 0.486832,0.174624 0.142874,0.174625 0.142874,0.539749 z m 3.042699,-0.98425 q 0,0.5715 -0.174625,0.77787 -0.174624,0.20638 -0.582081,0.20638 h -2.762241 l -0.582082,-0.8255 q 0.492124,-0.0847 1.02658,-0.12171 0.534457,-0.037 0.973664,-0.037 z"
         style="font-style:normal;font-variant:normal;font-weight:normal;font-stretch:normal;font-family:Signika;-inkscape-font-specification:Signika;stroke-width:0.264583"
         id="path65" />
    </g>
    <g
       aria-label="33"
       id="text158"
       style="font-style:normal;font-weight:normal;font-size:10.5833px;line-height:1.25;font-family:sans-serif;fill:#000000;fill-opacity:1;stroke:none;stroke-width:0.264583">
      <path
         d="m 195.43928,125.87174 q 0,-0.56091 -0.32809,-0.86254 -0.32279,-0.30691 -0.86783,-0.30691 -0.16933,0 -0.36512,0.0476 -0.19579,0.0423 -0.34925,0.127 -0.15346,-0.0794 -0.28046,-0.24871 -0.127,-0.16933 -0.16933,-0.34925 0.29104,-0.13758 0.65617,-0.22754 0.37041,-0.09 0.79903,-0.09 0.55034,0 1.016,0.21166 0.47096,0.21167 0.75142,0.64558 0.28045,0.42863 0.28045,1.09537 0,0.56621 -0.20637,0.98425 -0.20638,0.41804 -0.55562,0.6985 -0.34396,0.27516 -0.77259,0.41275 -0.42862,0.13758 -0.86783,0.13758 -0.67733,0 -1.22237,-0.19579 -0.53975,-0.20108 -0.88899,-0.49742 0.0423,-0.19579 0.17462,-0.40216 0.13758,-0.20638 0.30692,-0.33867 0.3122,0.23284 0.67733,0.38629 0.37041,0.14817 0.80962,0.14817 0.39687,0 0.71437,-0.15346 0.3175,-0.15875 0.50271,-0.46037 0.18521,-0.30692 0.18521,-0.762 z m -0.44979,-2.24366 q -0.17992,0.18521 -0.41275,0.35454 -0.23284,0.16933 -0.46038,0.30692 -0.22754,0.13229 -0.39687,0.21696 l -0.64029,-0.22755 1.32291,-1.37582 q 0.0794,-0.0847 0.21696,-0.21696 0.13758,-0.13759 0.27517,-0.26988 0.13758,-0.13229 0.22754,-0.20637 l -0.0317,-0.0476 q -0.1905,0.0423 -0.54504,0.0688 -0.34925,0.0265 -0.67733,0.0265 h -1.49754 q -0.0423,-0.11641 -0.0529,-0.22225 -0.0106,-0.10583 -0.0106,-0.17991 0,-0.12171 0.0159,-0.26458 0.0212,-0.14288 0.0794,-0.28046 h 3.68828 q 0.127,0.23812 0.17992,0.41275 0.0582,0.16933 0.0582,0.28575 0,0.1217 -0.0529,0.23812 -0.0476,0.11642 -0.17463,0.24871 z"
         style="font-style:normal;font-variant:normal;font-weight:normal;font-stretch:normal;font-family:Signika;-inkscape-font-specification:Signika;stroke-width:0.264583"
         id="path49" />
      <path
         d="m 201.15425,125.87174 q 0,-0.56091 -0.32808,-0.86254 -0.3228,-0.30691 -0.86784,-0.30691 -0.16933,0 -0.36512,0.0476 -0.19579,0.0423 -0.34925,0.127 -0.15346,-0.0794 -0.28046,-0.24871 -0.12699,-0.16933 -0.16933,-0.34925 0.29104,-0.13758 0.65617,-0.22754 0.37041,-0.09 0.79904,-0.09 0.55033,0 1.01599,0.21166 0.47096,0.21167 0.75142,0.64558 0.28045,0.42863 0.28045,1.09537 0,0.56621 -0.20637,0.98425 -0.20637,0.41804 -0.55562,0.6985 -0.34396,0.27516 -0.77258,0.41275 -0.42863,0.13758 -0.86783,0.13758 -0.67734,0 -1.22238,-0.19579 -0.53974,-0.20108 -0.88899,-0.49742 0.0423,-0.19579 0.17462,-0.40216 0.13758,-0.20638 0.30692,-0.33867 0.3122,0.23284 0.67733,0.38629 0.37041,0.14817 0.80962,0.14817 0.39687,0 0.71437,-0.15346 0.3175,-0.15875 0.50271,-0.46037 0.18521,-0.30692 0.18521,-0.762 z m -0.44979,-2.24366 q -0.17992,0.18521 -0.41275,0.35454 -0.23283,0.16933 -0.46037,0.30692 -0.22755,0.13229 -0.39688,0.21696 l -0.64029,-0.22755 1.32291,-1.37582 q 0.0794,-0.0847 0.21696,-0.21696 0.13758,-0.13759 0.27517,-0.26988 0.13758,-0.13229 0.22754,-0.20637 l -0.0317,-0.0476 q -0.1905,0.0423 -0.54504,0.0688 -0.34925,0.0265 -0.67733,0.0265 h -1.49754 q -0.0423,-0.11641 -0.0529,-0.22225 -0.0106,-0.10583 -0.0106,-0.17991 0,-0.12171 0.0159,-0.26458 0.0212,-0.14288 0.0794,-0.28046 h 3.68828 q 0.127,0.23812 0.17992,0.41275 0.0582,0.16933 0.0582,0.28575 0,0.1217 -0.0529,0.23812 -0.0476,0.11642 -0.17463,0.24871 z"
         style="font-style:normal;font-variant:normal;font-weight:normal;font-stretch:normal;font-family:Signika;-inkscape-font-specification:Signika;stroke-width:0.264583"
         id="path51" />
    </g>
    <g
       aria-label="15"
       id="text162"
       style="font-style:normal;font-weight:normal;font-size:10.5833px;line-height:1.25;font-family:sans-serif;fill:#000000;fill-opacity:1;stroke:none;stroke-width:0.264583">
      <path
         d="m 140.15704,19.37432 q 0,0.216957 -0.005,0.407457 -0.005,0.190499 -0.005,0.412748 v 0.359833 h -1.05833 v -0.359833 q 0,-0.222249 -0.005,-0.412748 -0.005,-0.1905 -0.005,-0.407457 v -2.248951 q 0,-0.179917 0.0106,-0.502707 0.0159,-0.322791 0.0317,-0.650873 0.0159,-0.328082 0.0159,-0.523873 l -0.0212,-1.15358 q 0.13759,-0.03175 0.26988,-0.03704 0.13229,-0.01058 0.24871,-0.01058 0.1217,0 0.2487,0.01058 0.13229,0.0053 0.27517,0.03704 z m -1.67745,0.703789 q 0.10583,0 0.3122,0.0053 0.20638,0.0053 0.3175,0.0053 h 1.016 q 0.10583,0 0.3175,-0.0053 0.21696,-0.0053 0.32279,-0.0053 h 0.73025 q 0.0476,0.222249 0.0476,0.455082 0,0.222249 -0.0476,0.460374 h -3.98462 q -0.0529,-0.243416 -0.0529,-0.460374 0,-0.232833 0.0529,-0.455082 z m -1.34408,-3.75178 q 0.76729,-0.476248 1.2647,-1.010705 0.49742,-0.534456 0.71437,-1.021288 l 0.40746,0.878414 q -0.14287,0.38629 -0.44979,0.735539 -0.30692,0.349249 -0.6985,0.629706 -0.39158,0.275166 -0.77258,0.444499 -0.17462,-0.100541 -0.30162,-0.275166 -0.127,-0.174624 -0.16404,-0.380999 z"
         style="font-style:normal;font-variant:normal;font-weight:normal;font-stretch:normal;font-family:Signika;-inkscape-font-specification:Signika;stroke-width:0.264583"
         id="path37" />
      <path
         d="m 144.17868,16.453329 q -0.0106,0.211666 -0.0476,0.433915 -0.0317,0.22225 -0.0952,0.418041 -0.20638,0.07937 -0.44979,0.126999 -0.23813,0.04233 -0.52917,0.06879 l 0.15875,-3.137949 0.97367,0.153458 q 0.0159,0.153458 0.0265,0.396874 0.0106,0.238124 0.0106,0.476248 0.005,0.238125 -0.005,0.375708 z m -1.35995,4.005779 q 0.0265,-0.169333 0.15875,-0.391582 0.13758,-0.222249 0.30691,-0.343957 0.3175,0.222249 0.66675,0.365123 0.35454,0.142875 0.78317,0.142875 0.35454,0 0.66145,-0.158749 0.30692,-0.15875 0.49742,-0.486832 0.19579,-0.328083 0.19579,-0.841373 0,-0.51329 -0.20108,-0.799039 -0.1958,-0.29104 -0.49742,-0.412748 -0.29633,-0.121708 -0.60325,-0.121708 -0.30691,0 -0.61912,0.121708 -0.30692,0.116416 -0.57679,0.343957 -0.14817,-0.03175 -0.30692,-0.142875 -0.15345,-0.111124 -0.22754,-0.232832 0.20638,-0.232833 0.51329,-0.449791 0.30692,-0.222249 0.69321,-0.365123 0.38629,-0.148167 0.81491,-0.148167 0.97367,0 1.56104,0.57679 0.59266,0.571498 0.59266,1.57162 0,0.841373 -0.35454,1.381121 -0.35454,0.539748 -0.91016,0.804331 -0.55033,0.259291 -1.15887,0.259291 -0.62971,0 -1.143,-0.1905 -0.508,-0.195791 -0.84666,-0.48154 z m 4.0534,-6.164772 q 0.0423,0.121708 0.0582,0.243416 0.0159,0.121708 0.0159,0.211666 0,0.486832 -0.48684,0.486832 h -1.82562 q -0.27516,0 -0.55033,-0.01058 -0.26987,-0.01058 -0.49212,-0.02117 -0.22225,-0.01587 -0.33867,-0.03175 l -0.037,-0.809623 0.0688,-0.06879 z"
         style="font-style:normal;font-variant:normal;font-weight:normal;font-stretch:normal;font-family:Signika;-inkscape-font-specification:Signika;stroke-width:0.264583"
         id="path39" />
    </g>
  </g>
</svg>
